<?xml version="1.0" standalone="no"?>
<!DOCTYPE svg PUBLIC "-//W3C//DTD SVG 20010904//EN"
 "http://www.w3.org/TR/2001/REC-SVG-20010904/DTD/svg10.dtd">
<svg version="1.0" xmlns="http://www.w3.org/2000/svg"
 width="500.000000pt" height="500.000000pt" viewBox="0 0 500.000000 500.000000"
 preserveAspectRatio="xMidYMid meet">

<g transform="translate(0.000000,500.000000) scale(0.100000,-0.100000)"
fill="#000000" stroke="none">
<path d="M2800 3532 c-70 -72 -198 -158 -347 -233 -163 -83 -193 -79 -61 8 48
32 66 48 56 54 -7 4 -59 15 -116 24 -129 22 -383 16 -477 -10 -138 -38 -279
-121 -398 -234 -67 -64 -66 -67 18 -67 45 1 79 -4 86 -11 10 -10 8 -14 -7 -19
-56 -18 -124 -47 -124 -53 0 -3 17 -20 38 -37 151 -124 359 -223 587 -281 140
-35 354 -43 492 -18 104 19 236 61 316 102 55 28 67 25 43 -11 -39 -61 -110
-107 -215 -141 l-52 -18 43 -24 c45 -25 158 -130 158 -147 0 -5 7 -18 17 -28
9 -10 14 -20 11 -23 -2 -3 -482 -5 -1066 -5 -650 0 -1062 -4 -1062 -9 0 -6 5
-13 10 -16 6 -4 22 -23 35 -43 13 -21 45 -66 70 -102 25 -36 45 -69 45 -74 0
-4 -15 -29 -33 -55 -66 -91 -127 -181 -127 -187 0 -4 464 -5 1030 -2 767 4
1030 3 1030 -6 0 -18 -111 -95 -155 -108 -22 -6 -45 -15 -51 -20 -13 -10 -102
13 -133 34 -12 9 -33 30 -46 47 -28 39 -39 27 -30 -32 14 -87 93 -180 197
-233 70 -36 178 -44 244 -19 50 19 48 20 114 -44 14 -13 54 -38 90 -55 59 -28
74 -31 165 -31 82 0 109 4 147 22 86 39 183 147 207 230 5 15 12 36 16 45 5
12 -12 5 -51 -21 -78 -52 -174 -84 -244 -82 -70 2 -149 39 -190 89 -30 36 -78
167 -66 179 3 3 282 5 620 4 338 -1 616 1 619 6 2 4 -31 59 -75 122 -92 130
-92 108 3 241 33 47 65 93 70 102 9 17 -18 18 -477 17 -267 0 -488 1 -490 4
-2 2 10 35 27 72 44 98 60 184 48 253 -23 123 -99 226 -254 347 -74 57 -212
145 -228 145 -4 0 -29 -23 -57 -50 -28 -28 -56 -48 -61 -44 -7 4 -3 14 9 28
36 40 70 132 91 250 13 68 15 226 4 225 -5 0 -33 -26 -63 -57z m-849 -281 c35
-36 36 -54 4 -86 -34 -35 -78 -33 -116 4 -35 36 -36 54 -4 86 34 35 78 33 116
-4z m-790 -1030 l-61 -70 45 -70 c25 -38 45 -72 45 -75 0 -3 -10 -6 -23 -6
-18 0 -33 16 -65 65 -44 70 -72 84 -72 38 0 -16 -3 -45 -6 -65 -6 -32 -11 -38
-31 -38 -21 0 -24 4 -19 28 3 15 10 70 16 122 15 134 17 140 42 140 20 0 20
-4 15 -60 -5 -42 -3 -60 5 -60 6 0 35 27 65 59 45 51 85 76 102 64 2 -2 -24
-34 -58 -72z m791 74 c2 -3 -4 -67 -13 -142 -10 -76 -18 -141 -19 -145 0 -16
-40 -8 -40 8 0 13 -5 12 -26 -5 -53 -41 -104 -12 -104 59 0 84 57 149 119 137
30 -6 30 -6 37 43 5 38 11 50 24 50 9 0 19 -2 22 -5z m95 -11 c3 -8 -2 -23
-11 -32 -15 -15 -17 -15 -33 0 -13 14 -14 20 -3 32 16 20 39 20 47 0z m718 -6
c0 -9 -20 -15 -65 -18 l-65 -5 -5 -47 -6 -48 53 0 c46 0 53 -3 53 -20 0 -18
-7 -20 -54 -20 -60 0 -66 -7 -66 -82 0 -34 -3 -38 -25 -38 -14 0 -25 5 -25 12
0 18 31 261 34 273 5 16 171 10 171 -7z m75 6 c11 -12 10 -18 -3 -32 -16 -15
-18 -15 -33 0 -19 18 -12 48 9 48 8 0 20 -7 27 -16z m254 -46 c-7 -62 -7 -63
13 -45 26 23 66 22 88 -3 15 -16 16 -30 11 -87 -10 -91 -14 -103 -37 -103 -19
0 -19 5 -13 74 8 94 3 110 -30 95 -32 -15 -46 -44 -54 -110 -6 -47 -10 -54
-31 -57 -22 -4 -23 -1 -18 35 4 21 11 83 17 138 14 123 15 125 40 125 20 0 21
-4 14 -62z m551 32 c0 -29 -32 -41 -41 -16 -9 24 4 48 23 44 12 -2 18 -12 18
-28z m-2262 -125 c-3 -108 -12 -145 -34 -145 -11 0 -19 7 -19 16 0 13 -5 12
-26 -5 -33 -26 -56 -27 -77 -3 -27 30 -30 67 -9 116 26 57 71 88 127 84 l40
-3 -2 -60z m93 50 c5 -13 8 -13 27 0 32 22 47 18 47 -11 0 -19 -4 -25 -15 -21
-29 12 -56 -25 -68 -95 -10 -62 -13 -68 -35 -68 -17 0 -22 4 -18 18 2 9 7 44
11 77 3 33 8 72 11 88 6 29 31 37 40 12z m248 7 c3 -5 0 -52 -6 -106 -11 -89
-13 -97 -32 -94 -12 2 -20 9 -18 17 2 8 -8 5 -24 -8 -15 -12 -35 -21 -45 -21
-31 0 -59 36 -59 75 0 77 63 145 135 145 24 0 46 -4 49 -8z m308 3 c3 -4 -7
-98 -22 -202 -1 -11 -40 0 -40 11 0 22 20 169 25 184 4 12 27 17 37 7z m76
-12 c5 -10 15 -42 22 -72 l13 -55 34 68 c32 64 55 87 71 71 4 -4 -24 -67 -63
-141 -59 -112 -74 -134 -93 -134 l-23 0 23 39 22 39 -22 86 c-12 47 -25 92
-28 101 -9 22 33 20 44 -2z m316 -43 c-2 -102 -13 -150 -35 -150 -11 0 -19 7
-19 16 0 14 -1 14 -16 0 -47 -48 -107 -19 -107 51 0 82 62 146 138 141 l40 -3
-1 -55z m402 -17 c-11 -116 -16 -133 -39 -133 -18 0 -19 4 -13 68 13 128 17
142 39 142 19 0 19 -4 13 -77z m165 66 c16 -8 18 -13 8 -25 -8 -10 -15 -11
-25 -3 -18 15 -58 7 -62 -13 -2 -11 10 -24 37 -38 36 -18 41 -25 41 -54 0 -38
-23 -63 -67 -72 -35 -7 -73 10 -73 31 0 18 14 19 41 5 24 -14 59 3 59 29 0 12
-14 23 -40 34 -35 13 -40 20 -40 46 0 58 65 90 121 60z m401 -6 c41 -37 7 -87
-66 -98 -34 -5 -46 -12 -46 -24 0 -39 48 -54 87 -26 15 11 24 12 29 4 10 -17
-28 -49 -67 -55 -90 -15 -127 110 -55 182 38 38 87 46 118 17z m98 -5 l0 -21
23 21 c31 30 59 29 55 0 -2 -15 -10 -23 -22 -23 -29 0 -57 -46 -64 -106 -6
-47 -10 -54 -31 -57 -21 -3 -23 -1 -17 35 3 21 8 65 12 98 7 69 10 75 30 75 8
0 14 -9 14 -22z m150 11 c0 -5 -5 -53 -12 -105 -11 -90 -12 -94 -36 -94 -20 0
-23 4 -19 23 3 12 9 56 13 97 3 41 9 78 11 83 6 11 43 8 43 -4z m182 -6 c40
-36 5 -88 -68 -99 -32 -4 -44 -11 -44 -23 0 -40 43 -53 84 -25 31 19 45 1 21
-26 -26 -29 -79 -36 -110 -16 -55 36 -55 118 1 174 36 36 85 43 116 15z m174
2 c21 -16 17 -18 -41 -19 -56 -1 -59 -28 -6 -56 36 -18 41 -25 41 -54 0 -40
-25 -65 -71 -72 -40 -6 -81 17 -63 36 7 7 19 8 35 1 31 -11 59 3 59 29 0 12
-11 22 -34 30 -51 17 -63 64 -24 100 26 24 76 26 104 5z"/>
<path d="M1833 2165 c-30 -21 -49 -85 -34 -114 15 -27 32 -27 60 3 28 30 40
104 20 117 -19 12 -21 11 -46 -6z"/>
<path d="M1305 2166 c-34 -15 -55 -52 -55 -96 0 -33 12 -44 39 -35 22 7 46 54
54 108 6 41 5 42 -38 23z"/>
<path d="M1640 2167 c-55 -27 -78 -143 -27 -135 29 4 56 46 63 101 7 50 3 54
-36 34z"/>
<path d="M2344 2166 c-35 -15 -57 -59 -52 -102 2 -23 8 -29 27 -29 30 0 56 41
65 103 7 46 5 47 -40 28z"/>
<path d="M3300 2153 c-25 -32 -15 -39 35 -23 25 8 35 17 33 28 -5 29 -44 26
-68 -5z"/>
<path d="M3730 2153 c-18 -24 -19 -29 -6 -31 23 -5 71 21 71 38 0 27 -41 23
-65 -7z"/>
</g>
</svg>
